<svg width="35" height="31" viewBox="0 0 35 31" fill="none" xmlns="http://www.w3.org/2000/svg">
<path d="M17.793 8.04688C17.819 8.22917 17.832 8.39844 17.832 8.55469C17.832 8.93229 17.5521 9.19922 16.9922 9.35547L15.8789 9.6875C15.5794 9.73958 15.293 9.66146 15.0195 9.45312C14.7591 9.23177 14.6159 8.94531 14.5898 8.59375C14.3815 6.54948 13.9323 5.09766 13.2422 4.23828C12.8906 4.10807 12.5 4.04297 12.0703 4.04297C10.7682 3.99089 9.45312 4.91536 8.125 6.81641C6.8099 8.70443 5.66406 11.3932 4.6875 14.8828C3.72396 18.3724 3.40495 21.2695 3.73047 23.5742C4.06901 25.8789 4.74609 27.1549 5.76172 27.4023C7.75391 27.2201 9.40755 25.6836 10.7227 22.793C10.957 22.2591 11.1654 21.9401 11.3477 21.8359C11.543 21.7318 11.8685 21.7708 12.3242 21.9531L13.5938 22.4805C14.0755 22.6888 14.1146 23.2227 13.7109 24.082C12.487 26.3477 11.276 27.9557 10.0781 28.9062C8.88021 29.8438 7.40234 30.3125 5.64453 30.3125C4.70703 30.3646 3.67839 29.9544 2.55859 29.082C1.4388 28.1966 0.748698 26.3477 0.488281 23.5352C0.240885 20.7227 0.566406 17.4805 1.46484 13.8086C2.3763 10.1237 3.88672 7.03125 5.99609 4.53125C8.10547 2.01823 10.3451 0.748698 12.7148 0.722656C13.0404 0.722656 13.4831 0.820312 14.043 1.01562C14.6029 1.19792 15.1107 1.46484 15.5664 1.81641C16.0352 2.15495 16.4974 2.90365 16.9531 4.0625C17.4089 5.22135 17.6888 6.54948 17.793 8.04688ZM25.4688 16.4062H32.7539C33.1706 16.4062 33.2878 16.6992 33.1055 17.2852C31.582 22.1289 30.0716 25.4622 28.5742 27.2852C27.0898 29.0951 25.4362 30.0716 23.6133 30.2148C21.8034 30.3711 20.332 29.8958 19.1992 28.7891C18.0664 27.6823 17.4479 25.6315 17.3438 22.6367C17.2396 19.6289 17.6562 16.4062 18.5938 12.9688C19.5443 9.51823 20.9245 6.72526 22.7344 4.58984C24.5573 2.44141 26.3021 1.21745 27.9688 0.917969C29.6354 0.605469 30.9245 0.768229 31.8359 1.40625C32.7604 2.04427 33.4701 3.10547 33.9648 4.58984C34.4596 6.0612 34.707 7.17448 34.707 7.92969C34.707 8.67188 34.4401 9.14714 33.9062 9.35547L32.5 9.76562C32.2396 9.81771 32.0182 9.77214 31.8359 9.62891C31.6667 9.47266 31.5625 8.98438 31.5234 8.16406C31.4844 7.33073 31.276 6.48438 30.8984 5.625C30.5339 4.7526 30.0456 4.23828 29.4336 4.08203C28.1706 3.75651 26.7969 4.5638 25.3125 6.50391C23.8411 8.43099 22.7018 10.8594 21.8945 13.7891C21.1003 16.7057 20.6706 19.1667 20.6055 21.1719C20.5404 23.1641 20.7096 24.707 21.1133 25.8008C21.5299 26.8945 22.207 27.4089 23.1445 27.3438C24.082 27.2786 25.0326 26.6602 25.9961 25.4883C26.9727 24.3034 27.9297 22.181 28.8672 19.1211H25.0195C24.5117 19.1211 24.3555 18.75 24.5508 18.0078L24.8633 16.875C24.9674 16.5625 25.1693 16.4062 25.4688 16.4062Z" fill="#1E1E1E"/>
</svg>
