<svg width="116" height="31" viewBox="0 0 116 31" fill="none" xmlns="http://www.w3.org/2000/svg">
<path d="M12.36 30.48C9.93333 30.48 7.78667 29.9067 5.92 28.76C4.05333 27.5867 2.6 25.9333 1.56 23.8C0.52 21.64 2.98023e-08 19.08 2.98023e-08 16.12C2.98023e-08 13.2667 0.52 10.7467 1.56 8.56C2.62667 6.34667 4.12 4.62667 6.04 3.4C7.98667 2.14667 10.2533 1.52 12.84 1.52C14.1733 1.52 15.3867 1.65333 16.48 1.92C17.5733 2.16 18.6 2.50667 19.56 2.96L18.4 6.16C17.5733 5.76 16.72 5.44 15.84 5.2C14.9867 4.96 13.9733 4.84 12.8 4.84C11.0933 4.84 9.56 5.28 8.2 6.16C6.86667 7.04 5.81333 8.30667 5.04 9.96C4.26667 11.6133 3.88 13.6133 3.88 15.96C3.88 18.2 4.25333 20.16 5 21.84C5.77333 23.52 6.82667 24.8267 8.16 25.76C9.52 26.6933 11.0667 27.16 12.8 27.16C14.1067 27.16 15.24 27 16.2 26.68C17.16 26.36 18.0933 25.9467 19 25.44L20.16 28.6C19.1733 29.1333 18.04 29.5867 16.76 29.96C15.5067 30.3067 14.04 30.48 12.36 30.48ZM31.6991 30.48C29.9657 30.48 28.3924 30.04 26.9791 29.16C25.5657 28.28 24.4324 27.04 23.5791 25.44C22.7524 23.8133 22.3391 21.9067 22.3391 19.72C22.3391 17.64 22.7524 15.7733 23.5791 14.12C24.4324 12.4667 25.5924 11.16 27.0591 10.2C28.5524 9.21333 30.2591 8.72 32.1791 8.72C33.3791 8.72 34.4591 8.93333 35.4191 9.36C36.4057 9.76 37.2591 10.2667 37.9791 10.88V9.2H41.2591V24.96C41.2591 25.9733 41.4991 26.64 41.9791 26.96C42.4857 27.2533 43.0324 27.4 43.6191 27.4L42.8591 30.2C40.2991 30.2 38.7524 29.16 38.2191 27.08C37.6057 27.9333 36.7657 28.72 35.6991 29.44C34.6591 30.1333 33.3257 30.48 31.6991 30.48ZM32.4991 27.28C33.5124 27.28 34.4724 27.04 35.3791 26.56C36.2857 26.0533 37.0457 25.4267 37.6591 24.68V13.52C36.9391 13.0133 36.1391 12.6133 35.2591 12.32C34.4057 12 33.4991 11.84 32.5391 11.84C31.2591 11.84 30.1257 12.1733 29.1391 12.84C28.1791 13.48 27.4191 14.3867 26.8591 15.56C26.2991 16.7067 26.0191 18.0533 26.0191 19.6C26.0191 21.0933 26.2991 22.4267 26.8591 23.6C27.4191 24.7467 28.1924 25.6533 29.1791 26.32C30.1657 26.96 31.2724 27.28 32.4991 27.28ZM55.7066 30.48C53.7066 30.48 52.1199 29.8267 50.9466 28.52C49.7999 27.1867 49.2266 25.2933 49.2266 22.84V13.08H45.6266V9.96H49.3066L50.0666 3.4H52.8266V9.96H58.5866V13.08H52.8266V23.12C52.8266 24.6667 53.1466 25.7467 53.7866 26.36C54.4532 26.9733 55.2399 27.28 56.1466 27.28C56.8132 27.28 57.4399 27.1733 58.0266 26.96C58.6399 26.7467 59.1999 26.4933 59.7066 26.2L60.7066 29.08C60.1732 29.4 59.4532 29.7067 58.5466 30C57.6399 30.32 56.6932 30.48 55.7066 30.48ZM71.5038 30.48C69.7704 30.48 68.1971 30.04 66.7838 29.16C65.3704 28.28 64.2371 27.04 63.3838 25.44C62.5571 23.8133 62.1438 21.9067 62.1438 19.72C62.1438 17.64 62.5571 15.7733 63.3838 14.12C64.2371 12.4667 65.3971 11.16 66.8638 10.2C68.3571 9.21333 70.0638 8.72 71.9838 8.72C73.1838 8.72 74.2638 8.93333 75.2238 9.36C76.2104 9.76 77.0638 10.2667 77.7838 10.88V9.2H81.0638V24.96C81.0638 25.9733 81.3038 26.64 81.7838 26.96C82.2904 27.2533 82.8371 27.4 83.4238 27.4L82.6638 30.2C80.1038 30.2 78.5571 29.16 78.0238 27.08C77.4104 27.9333 76.5704 28.72 75.5038 29.44C74.4638 30.1333 73.1304 30.48 71.5038 30.48ZM72.3038 27.28C73.3171 27.28 74.2771 27.04 75.1838 26.56C76.0904 26.0533 76.8504 25.4267 77.4638 24.68V13.52C76.7438 13.0133 75.9438 12.6133 75.0638 12.32C74.2104 12 73.3038 11.84 72.3438 11.84C71.0638 11.84 69.9304 12.1733 68.9438 12.84C67.9838 13.48 67.2238 14.3867 66.6638 15.56C66.1038 16.7067 65.8238 18.0533 65.8238 19.6C65.8238 21.0933 66.1038 22.4267 66.6638 23.6C67.2238 24.7467 67.9971 25.6533 68.9838 26.32C69.9704 26.96 71.0771 27.28 72.3038 27.28ZM93.5859 16.4062H100.871C101.288 16.4062 101.405 16.6992 101.223 17.2852C99.6992 22.1289 98.1888 25.4622 96.6914 27.2852C95.207 29.0951 93.5534 30.0716 91.7305 30.2148C89.9206 30.3711 88.4492 29.8958 87.3164 28.7891C86.1836 27.6823 85.5651 25.6315 85.4609 22.6367C85.3568 19.6289 85.7734 16.4062 86.7109 12.9688C87.6615 9.51823 89.0417 6.72526 90.8516 4.58984C92.6745 2.44141 94.4193 1.21745 96.0859 0.917969C97.7526 0.605469 99.0417 0.768229 99.9531 1.40625C100.878 2.04427 101.587 3.10547 102.082 4.58984C102.577 6.0612 102.824 7.17448 102.824 7.92969C102.824 8.67188 102.557 9.14714 102.023 9.35547L100.617 9.76562C100.357 9.81771 100.135 9.77214 99.9531 9.62891C99.7839 9.47266 99.6797 8.98438 99.6406 8.16406C99.6016 7.33073 99.3932 6.48438 99.0156 5.625C98.651 4.7526 98.1628 4.23828 97.5508 4.08203C96.2878 3.75651 94.9141 4.5638 93.4297 6.50391C91.9583 8.43099 90.819 10.8594 90.0117 13.7891C89.2174 16.7057 88.7878 19.1667 88.7227 21.1719C88.6576 23.1641 88.8268 24.707 89.2305 25.8008C89.6471 26.8945 90.3242 27.4089 91.2617 27.3438C92.1992 27.2786 93.1497 26.6602 94.1133 25.4883C95.0898 24.3034 96.0469 22.181 96.9844 19.1211H93.1367C92.6289 19.1211 92.4727 18.75 92.668 18.0078L92.9805 16.875C93.0846 16.5625 93.2865 16.4062 93.5859 16.4062ZM102.336 24.1992C102.453 20.6315 103.345 17.2526 105.012 14.0625C106.678 10.8724 108.801 9.30339 111.379 9.35547C112.72 9.43359 113.762 10.1042 114.504 11.3672C115.064 12.2396 115.292 13.7174 115.188 15.8008C115.083 19.7461 114.003 23.3984 111.945 26.7578C110.526 29.2188 108.618 30.4036 106.223 30.3125C105.376 30.2865 104.589 29.9154 103.859 29.1992C102.766 28.1576 102.258 26.4909 102.336 24.1992ZM109.152 25.8008C110.962 22.9492 111.919 19.7591 112.023 16.2305C112.049 14.668 111.965 13.6198 111.77 13.0859C111.587 12.5521 111.197 12.2786 110.598 12.2656C109.999 12.2526 109.452 12.5326 108.957 13.1055C108.462 13.6784 107.98 14.4727 107.512 15.4883C106.327 17.8581 105.682 20.6315 105.578 23.8086C105.526 26.2044 105.943 27.4414 106.828 27.5195C107.596 27.5456 108.371 26.9727 109.152 25.8008Z" fill="#1E1E1E"/>
</svg>
